<svg width="20" height="23" viewBox="0 0 20 23" fill="none" xmlns="http://www.w3.org/2000/svg">
<path d="M11.1738 0.100586C12.3893 0.100632 13.3604 1.14306 13.3604 2.4209V3.81934H18.7969C19.0862 3.81934 19.2998 4.05474 19.2998 4.34668C19.2996 4.63822 19.0851 4.875 18.7969 4.875H17.6113L16.5605 19.374V19.377C16.4917 20.1771 16.1483 20.9137 15.5889 21.457C15.0284 22.0009 14.3038 22.2998 13.543 22.2998H5.85742C4.26462 22.2997 2.9823 21.0562 2.83984 19.4004V19.3994L1.78809 4.875H0.602539C0.313871 4.875 0.100624 4.63848 0.100586 4.34668V4.34473L0.110352 4.23926C0.15555 3.99993 0.349554 3.81934 0.602539 3.81934H6.03906V2.4209C6.03919 1.14394 7.00973 0.100586 8.22559 0.100586H11.1738ZM3.83691 19.2754C3.83826 19.2852 3.84192 19.2947 3.84277 19.3047C3.93752 20.4083 4.81843 21.2441 5.85742 21.2441H13.543C14.5805 21.2441 15.4591 20.4004 15.5576 19.2881L15.5586 19.2754L15.5605 19.2695L16.6035 4.875H2.79688L3.83691 19.2754ZM8.22559 1.15625C7.58359 1.15625 7.04395 1.72238 7.04395 2.4209V3.81934H12.3574V2.4209C12.3574 1.72307 11.8175 1.15625 11.1748 1.15625H8.22559Z" fill="#331A00" stroke="#331A00" stroke-width="0.2"/>
</svg>
