<svg width="356" height="52" viewBox="0 0 356 52" fill="none" xmlns="http://www.w3.org/2000/svg">
<path d="M37.7686 40.2423L42.7763 46.879L36.8033 51.2833L31.1923 43.8623C28.5979 44.7673 25.7623 45.25 22.6853 45.25C9.23094 45.25 -5.91676e-05 36.2603 -5.91676e-05 22.625C-5.91676e-05 8.98964 9.23094 -3.14282e-05 22.6853 -3.14282e-05C36.0793 -3.14282e-05 45.3706 8.98964 45.3706 22.625C45.3706 30.1666 42.5349 36.2603 37.7686 40.2423ZM27.2103 26.1846L31.7353 32.218C33.4246 29.9253 34.4503 26.7276 34.4503 22.625C34.4503 13.3336 29.0806 8.50697 22.6853 8.50697C16.2899 8.50697 10.9203 13.3336 10.9203 22.625C10.9203 31.9163 16.2899 36.743 22.6853 36.743C23.6506 36.743 24.6763 36.6223 25.5813 36.381L21.2373 30.5286L27.2103 26.1846ZM68.5325 39.9406C66.5415 43.1383 64.0075 45.25 58.9998 45.25C50.3721 45.25 47.7778 40.363 47.7778 31.5543V12.0063H57.7328V29.0806C57.7328 33.7263 57.8535 37.5273 62.6801 37.5273C66.9035 37.5273 68.5325 35.114 68.5325 29.141V12.0063H78.4875V44.4656H68.5325V39.9406ZM102.511 22.9266C102.511 19.1256 100.581 17.738 97.0211 17.738C93.8235 17.738 91.5911 19.367 91.2291 22.5043H81.9378C82.3601 16.4106 88.2728 10.9806 97.8658 10.9806C107.157 10.9806 112.527 14.7213 112.346 24.616L112.225 31.675C112.165 35.8983 112.346 41.6903 112.949 44.4656H103.175L103.054 40.544C100.641 43.983 96.7798 45.25 92.1341 45.25C85.9801 45.25 80.9121 41.63 80.9121 35.7173C80.9121 27.7533 89.9018 25.0986 102.511 24.1936V22.9266ZM91.1688 34.9933C91.1688 37.105 93.1598 38.4926 95.7541 38.4926C99.7361 38.4926 102.753 36.8033 102.753 30.8303V30.046C95.8145 30.6493 91.1688 31.5543 91.1688 34.9933ZM135.615 21.539C134.529 21.4183 133.805 21.358 132.9 21.358C128.134 21.358 125.6 23.1076 125.6 28.1756V44.4656H115.645V12.0063H125.238V18.1603C126.746 14.3593 129.461 11.946 134.107 11.765C134.589 11.765 135.132 11.765 135.615 11.8253V21.539ZM143.239 3.1373H153.194V12.0063H160.314V19.0653H153.194V33.6056C153.194 36.6826 154.16 37.286 157.478 37.286H160.314V44.4656H153.979C146.015 44.4656 143.239 42.9573 143.239 35.3553V19.0653H138.111V12.0063H143.239V3.1373ZM194.612 34.2693C191.716 41.9316 184.959 45.25 178.443 45.25C167.885 45.25 160.645 38.7943 160.645 28.055C160.645 17.6776 168.548 11.041 178.021 11.041C188.76 11.041 195.397 19.2463 194.733 30.77H170.66C170.962 35.3553 174.521 37.5273 178.141 37.5273C181.882 37.5273 184.295 36.2 185.442 34.2693H194.612ZM170.781 24.7366H184.838C184.718 20.6943 181.761 18.643 178.021 18.643C174.521 18.643 171.324 20.453 170.781 24.7366ZM216.943 21.539C215.857 21.4183 215.133 21.358 214.228 21.358C209.461 21.358 206.927 23.1076 206.927 28.1756V44.4656H196.972V12.0063H206.565V18.1603C208.074 14.3593 210.789 11.946 215.434 11.765C215.917 11.765 216.46 11.765 216.943 11.8253V21.539ZM240.727 0.72397H252.069L268.601 44.4656H257.379L254.724 36.6826H237.831L235.236 44.4656H224.256L240.727 0.72397ZM240.666 28.2963H251.949L246.338 11.6443L240.666 28.2963ZM298.999 23.892H289.708C288.863 20.1513 286.45 18.7636 283.494 18.7636C279.934 18.7636 276.435 21.2373 276.435 28.1153C276.435 35.1743 279.994 37.5273 283.494 37.5273C287.174 37.5273 289.406 35.5966 290.13 32.5196H299.422C297.129 42.2333 289.406 45.25 282.89 45.25C272.211 45.25 266.299 38.372 266.299 28.055C266.299 17.7983 273.056 11.041 282.89 11.041C289.648 11.041 297.069 14.118 298.999 23.892ZM321.124 21.539C320.038 21.4183 319.314 21.358 318.409 21.358C313.642 21.358 311.108 23.1076 311.108 28.1756V44.4656H301.153V12.0063H310.746V18.1603C312.255 14.3593 314.97 11.946 319.615 11.765C320.098 11.765 320.641 11.765 321.124 11.8253V21.539ZM354.389 34.2693C351.493 41.9316 344.736 45.25 338.22 45.25C327.662 45.25 320.422 38.7943 320.422 28.055C320.422 17.6776 328.325 11.041 337.798 11.041C348.537 11.041 355.174 19.2463 354.51 30.77H330.437C330.739 35.3553 334.298 37.5273 337.918 37.5273C341.659 37.5273 344.072 36.2 345.219 34.2693H354.389ZM330.558 24.7366H344.615C344.495 20.6943 341.538 18.643 337.798 18.643C334.298 18.643 331.101 20.453 330.558 24.7366Z" fill="#543C23"/>
</svg>
