<svg width="13" height="13" viewBox="0 0 13 13" fill="none" xmlns="http://www.w3.org/2000/svg">
<path fill-rule="evenodd" clip-rule="evenodd" d="M3.07587 4.61011C2.94413 4.39015 3.01609 4.10462 3.23604 3.97287C3.45543 3.84171 3.74095 3.91309 3.87211 4.13362L6.05254 7.77942C6.13611 7.91928 6.28758 8.00575 6.45125 8.00575C6.61434 8.00575 6.76581 7.91928 6.84938 7.77942L9.02981 4.13362C9.16155 3.91308 9.44651 3.84171 9.66647 3.97287C9.88643 4.10461 9.95838 4.39015 9.82664 4.61011L7.6468 8.2559C7.39493 8.67665 6.94109 8.93376 6.45126 8.93376C5.96144 8.93376 5.50702 8.67665 5.25572 8.2559L3.07587 4.61011Z" fill="#331A00"/>
<path fill-rule="evenodd" clip-rule="evenodd" d="M6.96428 8.04544C6.96428 8.30138 6.75594 8.50973 6.49999 8.50973C6.24405 8.50973 6.03571 8.30138 6.03571 8.04544V0.464286C6.03571 0.208342 6.24405 0 6.49999 0C6.75594 0 6.96428 0.208342 6.96428 0.464286V8.04544Z" fill="#331A00"/>
<path fill-rule="evenodd" clip-rule="evenodd" d="M12.0714 7.98479C12.0714 7.72827 12.2792 7.52051 12.5357 7.52051C12.7922 7.52051 13 7.72827 13 7.98479V11.467C13 12.2366 12.3767 12.8599 11.6071 12.8599H1.39286C0.623302 12.8599 0 12.2366 0 11.467V7.98479C0 7.72827 0.207762 7.52051 0.464286 7.52051C0.720809 7.52051 0.928571 7.72827 0.928571 7.98479V11.467C0.928571 11.7235 1.13633 11.9313 1.39286 11.9313H11.6071C11.8637 11.9313 12.0714 11.7235 12.0714 11.467V7.98479Z" fill="#331A00"/>
</svg>
