<svg width="13" height="13" viewBox="0 0 13 13" fill="none" xmlns="http://www.w3.org/2000/svg">
<path fill-rule="evenodd" clip-rule="evenodd" d="M6.53784 2.70886C6.94987 2.6893 7.29978 3.00767 7.3191 3.4197C7.33866 3.83197 7.02029 4.18188 6.60827 4.2012C6.19624 4.22076 5.84632 3.90239 5.82676 3.49012C5.80744 3.0781 6.12582 2.72818 6.53784 2.70886Z" fill="#250400"/>
<path fill-rule="evenodd" clip-rule="evenodd" d="M5.06401 6.13925L4.92439 5.76953C4.91681 5.74899 4.9195 5.72796 4.93197 5.70986C5.25254 5.25407 5.73768 4.84204 6.33139 4.9C6.717 4.93716 6.98256 5.30297 6.89917 5.68101C6.6835 6.65789 6.45243 7.63134 6.23675 8.60798C6.20741 8.741 6.33359 8.85446 6.4627 8.81142C6.68277 8.73782 6.88841 8.45588 7.02168 8.2742C7.052 8.23288 7.11582 8.24168 7.13416 8.28961L7.2733 8.65908C7.28112 8.67962 7.27868 8.7009 7.26596 8.71899C6.94514 9.17479 6.46025 9.58657 5.8663 9.52862C5.48093 9.4912 5.21513 9.12588 5.29876 8.7476C5.51443 7.77072 5.7455 6.79751 5.96093 5.82063C5.99027 5.68761 5.86434 5.57415 5.73523 5.61743C5.51516 5.69079 5.30976 5.97248 5.176 6.15441C5.14568 6.19573 5.08186 6.18693 5.06401 6.13925Z" fill="#250400"/>
<path d="M6.12012 0.0605469C9.46442 0.0605469 12.1806 2.77582 12.1807 6.12012C12.1807 9.46444 9.46444 12.1807 6.12012 12.1807C2.77582 12.1806 0.0605469 9.46442 0.0605469 6.12012C0.0605717 2.77583 2.77583 0.0605717 6.12012 0.0605469ZM6.12012 0.794922C3.1772 0.794947 0.794947 3.1772 0.794922 6.12012C0.794922 9.06305 3.17719 11.4453 6.12012 11.4453C9.06307 11.4453 11.4453 9.06307 11.4453 6.12012C11.4453 3.17719 9.06305 0.794922 6.12012 0.794922Z" fill="#250400" stroke="#250400" stroke-width="0.119996"/>
</svg>
